# xmcd
#
# Track frame offsets: 
#        182
#        13092
#        25367
#        40415
#        56142
#        74040
#        90192
#        100640
#        117295
#        128210
#        153315
#        168215
#        187107
#        199627
#        216895
#        240315
#        255767
#        273062
#        292775
#        314182
#
# Disc length: 4415 seconds
#
# Revision: 1
# Processed by: cddbd v1.5.2PL0 Copyright (c) Steve Scherf et al.
# Submitted via: ExactAudioCopy v1.0b3
#
DISCID=13113d14
DTITLE=Jimi Hendrix - Experience Hendrix - the best of
DYEAR=1997
DGENRE=Rock
TTITLE0=Purple haze
TTITLE1=Fire
TTITLE2=The wind cries Mary
TTITLE3=Hey, Joe
TTITLE4=All along the watchtower
TTITLE5=Stone free
TTITLE6=Crosstown traffic
TTITLE7=Manic depression
TTITLE8=Little wing
TTITLE9=If six was nine
TTITLE10=Foxy lady
TTITLE11=Bold as love
TTITLE12=Castles made of sand
TTITLE13=Red house
TTITLE14=Voodoo Chile (Slight return)
TTITLE15=Freedom
TTITLE16=Night bird flying
TTITLE17=Angel
TTITLE18=Dolly Dagger
TTITLE19=The star-spangled banner
EXTD=
EXTT0=
EXTT1=
EXTT2=
EXTT3=
EXTT4=
EXTT5=
EXTT6=
EXTT7=
EXTT8=
EXTT9=
EXTT10=
EXTT11=
EXTT12=
EXTT13=
EXTT14=
EXTT15=
EXTT16=
EXTT17=
EXTT18=
EXTT19=
PLAYORDER=
